

Format                           : AVI
Format/Info                      : Audio Video Interleave
File size                        : 1.23 GiB
Duration                         : 1h 26mn
Overall bit rate                 : 2 042 Kbps
Writing library                  : VirtualDub build 32839/release

Video
ID                               : 0
Format                           : MPEG-4 Visual
Format profile                   : Advanced Simple@L5
Format settings, BVOP            : Yes
Format settings, QPel            : No
Format settings, GMC             : No warppoints
Format settings, Matrix          : Custom
Codec ID                         : XVID
Codec ID/Hint                    : XviD
Duration                         : 1h 26mn
Bit rate                         : 1 904 Kbps
Width                            : 720 pixels
Height                           : 400 pixels
Display aspect ratio             : 16:9
Frame rate                       : 25.000 fps
Color space                      : YUV
Chroma subsampling               : 4:2:0
Bit depth                        : 8 bits
Scan type                        : Progressive
Bits/(Pixel*Frame)               : 0.264
Stream size                      : 1.15 GiB (93%)
Writing library                  : XviD 1.2.1 (UTC 2008-12-04)

Audio
ID                               : 1
Format                           : MPEG Audio
Format version                   : Version 1
Format profile                   : Layer 3
Codec ID                         : 55
Codec ID/Hint                    : MP3
Duration                         : 1h 26mn
Bit rate mode                    : Constant
Bit rate                         : 128 Kbps
Channel(s)                       : 2 channels
Sampling rate                    : 44.1 KHz
Stream size                      : 78.9 MiB (6%)
Alignment                        : Split accross interleaves
Interleave, duration             : 40 ms (1.00 video frame)
Interleave, preload duration     : 500 ms


 
http://www.imdb.com/title/tt0945513/



Users: 8.1/10 (711 votes) 29 reviews | Critics: 56 reviews Metascore: 74/100 (based on 38 reviews from Metacritic.com)

Plot
An action thriller centered on a soldier who wakes up in the body of an unknown man and discovers he's part of a mission to find the bomber of a Chicago commuter train.

Director: Duncan Jones

Writer: Ben Ripley
Stars:
Jake Gyllenhaal, Michelle Monaghan and Vera 
 
http://img812.imageshack.us/img812/8914/vlcsnap2011040310h37m53.png
 
http://img847.imageshack.us/img847/3455/vlcsnap2011040310h35m45.png
 
http://img195.imageshack.us/img195/3044/vlcsnap2011040310h41m50.png


Video: ELEKTRI4KA ...........Thanks 

Audio: IMAGiNE   .................. Thanks 

Sample included so check it out first before downloading ....

Filters .slight smoother ,rgb colours changed brightness saturation 
Enjoy !



Greetz to Imagine ,Flawl3ss,DiLLoN,BDK,NOiR,TOXiCiNK,THC,Ez,Rx,Boobyblue




